<svg width="285" height="309" viewBox="0 0 285 309" fill="none" xmlns="http://www.w3.org/2000/svg">
<g filter="url(#filter0_d_167_15)">
<path d="M133.426 51.2336C135.947 49.7703 138.807 49 141.717 49C144.628 49 147.488 49.7703 150.009 51.2336L225.339 94.9577C227.86 96.4209 229.953 98.5255 231.408 101.06C232.864 103.594 233.63 106.469 233.63 109.396V196.844C233.63 199.771 232.864 202.645 231.408 205.18C229.953 207.714 227.86 209.819 225.339 211.282L150.009 255.006C147.488 256.47 144.628 257.24 141.717 257.24C138.807 257.24 135.947 256.47 133.426 255.006L58.0962 211.282C55.5753 209.819 53.4819 207.714 52.0264 205.18C50.5709 202.645 49.8047 199.771 49.8047 196.844V109.396C49.8047 106.469 50.5709 103.594 52.0264 101.06C53.4819 98.5255 55.5753 96.4209 58.0962 94.9577" fill="#1B1B1B"/>
</g>
<path fill-rule="evenodd" clip-rule="evenodd" d="M101.882 204.097C102.301 204.325 102.734 204.535 103.18 204.727C105.088 205.531 107.096 205.932 109.205 205.932H167.807C169.916 205.932 171.9 205.531 173.758 204.727C175.666 203.924 177.323 202.819 178.729 201.413C180.135 200.007 181.24 198.375 182.043 196.517C182.847 194.609 183.249 192.6 183.249 190.491V176.632H167.807V190.491H112.9L101.882 204.097ZM162.492 113.36H109.205V179.163L95.0337 196.664C95.012 196.615 94.9906 196.566 94.9693 196.517C94.1659 194.609 93.7642 192.6 93.7642 190.491V113.36C93.7642 111.251 94.1659 109.267 94.9693 107.409C95.7728 105.501 96.8775 103.869 98.2836 102.513C99.6896 101.107 101.322 100.002 103.18 99.199C105.088 98.3453 107.096 97.9185 109.205 97.9185H167.807C169.916 97.9185 171.9 98.3453 173.758 99.199C173.808 99.22 173.858 99.2413 173.907 99.2628L162.492 113.36ZM167.807 122.686V127.295H183.249V113.36C183.249 111.251 182.847 109.267 182.043 107.409C181.833 106.908 181.601 106.427 181.349 105.964L167.807 122.686Z" fill="white"/>
<path d="M176.901 139.727L176.905 139.727C177.227 139.663 177.553 139.797 177.741 140.077C177.925 140.354 177.927 140.709 177.745 140.986L177.744 140.987L129.283 214.973C129.283 214.974 129.282 214.974 129.282 214.975C129.126 215.21 128.871 215.347 128.593 215.347C128.499 215.347 128.406 215.331 128.316 215.3C127.958 215.173 127.735 214.822 127.775 214.44L127.775 214.44L132.958 164.428L133.131 162.76L131.484 163.077L105.964 167.995C105.963 167.995 105.962 167.996 105.961 167.996C105.624 168.057 105.298 167.915 105.118 167.646L105.116 167.643C104.933 167.371 104.93 167.016 105.113 166.736L105.113 166.736L153.577 92.7465C153.577 92.7465 153.577 92.7464 153.577 92.7464C153.785 92.4282 154.178 92.2941 154.542 92.4222C154.903 92.5511 155.124 92.903 155.084 93.2805L155.084 93.2811L149.901 143.294L149.728 144.963L151.375 144.645L176.901 139.727Z" fill="#D89F00" stroke="#FF8A00" stroke-width="2.4902"/>
<defs>
<filter id="filter0_d_167_15" x="0.804688" y="0" width="283.825" height="308.24" filterUnits="userSpaceOnUse" color-interpolation-filters="sRGB">
<feFlood flood-opacity="0" result="BackgroundImageFix"/>
<feColorMatrix in="SourceAlpha" type="matrix" values="0 0 0 0 0 0 0 0 0 0 0 0 0 0 0 0 0 0 127 0" result="hardAlpha"/>
<feOffset dx="1" dy="1"/>
<feGaussianBlur stdDeviation="25"/>
<feComposite in2="hardAlpha" operator="out"/>
<feColorMatrix type="matrix" values="0 0 0 0 0 0 0 0 0 0 0 0 0 0 0 0 0 0 1 0"/>
<feBlend mode="normal" in2="BackgroundImageFix" result="effect1_dropShadow_167_15"/>
<feBlend mode="normal" in="SourceGraphic" in2="effect1_dropShadow_167_15" result="shape"/>
</filter>
</defs>
</svg>
