<svg width="484" height="484" viewBox="0 0 484 484" fill="none" xmlns="http://www.w3.org/2000/svg">
<rect width="484" height="484" fill="#1B1B1B"/>
<g clip-path="url(#clip0_1_208)">
<g filter="url(#filter0_f_1_208)">
<path d="M236.5 378C320.171 378 388 315.096 388 237.5C388 159.904 320.171 97 236.5 97C152.829 97 85 159.904 85 237.5C85 315.096 152.829 378 236.5 378Z" fill="url(#paint0_linear_1_208)"/>
</g>
<g filter="url(#filter1_d_1_208)">
<path d="M233.426 134.801C235.947 133.338 238.807 132.568 241.717 132.568C244.628 132.568 247.488 133.338 250.009 134.801L325.339 178.525C327.86 179.988 329.953 182.093 331.408 184.627C332.864 187.162 333.63 190.037 333.63 192.963V280.412C333.63 283.338 332.864 286.213 331.408 288.747C329.953 291.282 327.86 293.386 325.339 294.85L250.009 338.574C247.488 340.037 244.628 340.807 241.717 340.807C238.807 340.807 235.947 340.037 233.426 338.574L158.096 294.85C155.575 293.386 153.482 291.282 152.026 288.747C150.571 286.213 149.805 283.338 149.805 280.412V192.963C149.805 190.037 150.571 187.162 152.026 184.627C153.482 182.093 155.575 179.988 158.096 178.525" fill="#1B1B1B"/>
</g>
<path fill-rule="evenodd" clip-rule="evenodd" d="M201.882 287.665C202.301 287.892 202.734 288.102 203.18 288.295C205.088 289.098 207.096 289.5 209.205 289.5H267.807C269.916 289.5 271.9 289.098 273.758 288.295C275.666 287.491 277.323 286.387 278.729 284.98C280.135 283.574 281.24 281.942 282.043 280.084C282.847 278.176 283.249 276.168 283.249 274.059V260.199H267.807V274.059H212.9L201.882 287.665ZM262.492 196.927H209.205V262.731L195.034 280.231C195.012 280.183 194.991 280.134 194.969 280.084C194.166 278.176 193.764 276.168 193.764 274.059V196.927C193.764 194.818 194.166 192.835 194.969 190.977C195.773 189.069 196.878 187.437 198.284 186.081C199.69 184.675 201.322 183.57 203.18 182.766C205.088 181.913 207.096 181.486 209.205 181.486H267.807C269.916 181.486 271.9 181.913 273.758 182.766C273.808 182.788 273.858 182.809 273.907 182.83L262.492 196.927ZM267.807 206.254V210.862H283.249V196.927C283.249 194.818 282.847 192.835 282.043 190.977C281.833 190.476 281.601 189.994 281.349 189.532L267.807 206.254Z" fill="white"/>
<path d="M276.901 223.295L276.905 223.294C277.227 223.231 277.552 223.364 277.741 223.644C277.925 223.921 277.927 224.276 277.745 224.554L277.744 224.554L229.283 298.541C229.283 298.541 229.282 298.542 229.282 298.542C229.126 298.778 228.871 298.915 228.593 298.915C228.498 298.915 228.405 298.899 228.315 298.867C227.957 298.739 227.735 298.389 227.775 298.008L227.775 298.008L232.958 247.996L233.131 246.327L231.484 246.645L205.964 251.563C205.963 251.563 205.962 251.563 205.961 251.563C205.624 251.625 205.298 251.483 205.118 251.213L205.116 251.211C204.933 250.938 204.93 250.583 205.113 250.304L205.113 250.303L253.577 176.314C253.577 176.314 253.577 176.314 253.577 176.314C253.785 175.996 254.178 175.862 254.542 175.99C254.903 176.119 255.124 176.47 255.084 176.848L255.084 176.849L249.901 226.862L249.728 228.53L251.375 228.213L276.901 223.295Z" fill="#D89F00" stroke="#FF8A00" stroke-width="2.4902"/>
</g>
<defs>
<filter id="filter0_f_1_208" x="5" y="17" width="463" height="441" filterUnits="userSpaceOnUse" color-interpolation-filters="sRGB">
<feFlood flood-opacity="0" result="BackgroundImageFix"/>
<feBlend mode="normal" in="SourceGraphic" in2="BackgroundImageFix" result="shape"/>
<feGaussianBlur stdDeviation="40" result="effect1_foregroundBlur_1_208"/>
</filter>
<filter id="filter1_d_1_208" x="100.805" y="83.5675" width="283.825" height="308.24" filterUnits="userSpaceOnUse" color-interpolation-filters="sRGB">
<feFlood flood-opacity="0" result="BackgroundImageFix"/>
<feColorMatrix in="SourceAlpha" type="matrix" values="0 0 0 0 0 0 0 0 0 0 0 0 0 0 0 0 0 0 127 0" result="hardAlpha"/>
<feOffset dx="1" dy="1"/>
<feGaussianBlur stdDeviation="25"/>
<feComposite in2="hardAlpha" operator="out"/>
<feColorMatrix type="matrix" values="0 0 0 0 0 0 0 0 0 0 0 0 0 0 0 0 0 0 1 0"/>
<feBlend mode="normal" in2="BackgroundImageFix" result="effect1_dropShadow_1_208"/>
<feBlend mode="normal" in="SourceGraphic" in2="effect1_dropShadow_1_208" result="shape"/>
</filter>
<linearGradient id="paint0_linear_1_208" x1="85" y1="97" x2="388" y2="378" gradientUnits="userSpaceOnUse">
<stop stop-color="#41C8FF"/>
<stop offset="1" stop-color="#BD34FE"/>
</linearGradient>
<clipPath id="clip0_1_208">
<rect width="461" height="461" fill="white" transform="translate(11 19)"/>
</clipPath>
</defs>
</svg>
